<?xml version="1.0" encoding="utf-8"?>
<!-- Generator: Adobe Illustrator 20.1.0, SVG Export Plug-In . SVG Version: 6.00 Build 0)  -->
<svg version="1.1" id="Шар_3" xmlns="http://www.w3.org/2000/svg" xmlns:xlink="http://www.w3.org/1999/xlink" x="0px" y="0px"
	 viewBox="0 0 557 573" style="enable-background:new 0 0 557 573;" xml:space="preserve">
<style type="text/css">
	.st0{fill:#FFFFFF;}
	.st1{fill:none;stroke:#FFFFFF;stroke-miterlimit:10;}
</style>
<circle class="st0" cx="279" cy="8.5" r="2.5"/>
<circle class="st0" cx="288.3" cy="23.5" r="2.5"/>
<circle class="st0" cx="269" cy="23.5" r="2.5"/>
<circle class="st0" cx="299.8" cy="60.3" r="2.5"/>
<circle class="st0" cx="258.5" cy="60.3" r="2.5"/>
<circle class="st0" cx="279" cy="41" r="2.5"/>
<circle class="st0" cx="279" cy="30.4" r="2.5"/>
<circle class="st0" cx="293.3" cy="38.5" r="2.5"/>
<circle class="st0" cx="264.8" cy="38.5" r="2.5"/>
<circle class="st0" cx="303.3" cy="93.3" r="2.5"/>
<circle class="st0" cx="254" cy="93.3" r="2.5"/>
<circle class="st0" cx="303.3" cy="135.7" r="2.5"/>
<circle class="st0" cx="253.5" cy="135.7" r="2.5"/>
<circle class="st0" cx="304.3" cy="195.1" r="2.5"/>
<circle class="st0" cx="253.5" cy="195.1" r="2.5"/>
<circle class="st0" cx="347.3" cy="233.3" r="2.5"/>
<circle class="st0" cx="373" cy="254.8" r="2.5"/>
<circle class="st0" cx="361.8" cy="247" r="2.5"/>
<circle class="st0" cx="347.3" cy="198.8" r="2.5"/>
<circle class="st0" cx="379.3" cy="198.8" r="2.5"/>
<circle class="st0" cx="381.8" cy="221.8" r="2.5"/>
<circle class="st0" cx="410" cy="275.5" r="2.5"/>
<circle class="st0" cx="444" cy="293" r="2.5"/>
<circle class="st0" cx="475.5" cy="312.5" r="2.5"/>
<circle class="st0" cx="509" cy="331" r="2.5"/>
<circle class="st0" cx="530.5" cy="354" r="2.5"/>
<circle class="st0" cx="543.5" cy="388.5" r="2.5"/>
<circle class="st0" cx="528" cy="371" r="2.5"/>
<circle class="st0" cx="509" cy="365.8" r="2.5"/>
<circle class="st0" cx="475.5" cy="355.5" r="2.5"/>
<circle class="st0" cx="441.5" cy="346.3" r="2.5"/>
<circle class="st0" cx="410" cy="337" r="2.5"/>
<circle class="st0" cx="373" cy="327.3" r="2.5"/>
<circle class="st0" cx="305.5" cy="328.5" r="2.5"/>
<circle class="st0" cx="305.5" cy="266" r="2.5"/>
<circle class="st0" cx="251" cy="266" r="2.5"/>
<circle class="st0" cx="251" cy="328.5" r="2.5"/>
<circle class="st0" cx="212.5" cy="233.3" r="2.5"/>
<circle class="st0" cx="211" cy="198.8" r="2.5"/>
<circle class="st0" cx="178.5" cy="197.6" r="2.5"/>
<circle class="st0" cx="176" cy="224.3" r="2.5"/>
<circle class="st0" cx="182.3" cy="255" r="2.5"/>
<circle class="st0" cx="199.8" cy="244.5" r="2.5"/>
<circle class="st0" cx="160.5" cy="268.5" r="2.5"/>
<circle class="st0" cx="120.5" cy="290.5" r="2.5"/>
<circle class="st0" cx="80.8" cy="312.5" r="2.5"/>
<circle class="st0" cx="29.5" cy="344" r="2.5"/>
<circle class="st0" cx="14" cy="388.8" r="2.5"/>
<circle class="st0" cx="29.5" cy="371.8" r="2.5"/>
<circle class="st0" cx="85.8" cy="355" r="2.5"/>
<circle class="st0" cx="123" cy="345" r="2.5"/>
<circle class="st0" cx="165.5" cy="333.5" r="2.5"/>
<circle class="st0" cx="190" cy="327.3" r="2.5"/>
<circle class="st0" cx="305.5" cy="371" r="2.5"/>
<circle class="st0" cx="305.5" cy="411" r="2.5"/>
<circle class="st0" cx="253.5" cy="373.5" r="2.5"/>
<circle class="st0" cx="253.5" cy="411" r="2.5"/>
<circle class="st0" cx="300.5" cy="456" r="2.5"/>
<circle class="st0" cx="256" cy="456" r="2.5"/>
<circle class="st0" cx="163.7" cy="545" r="2.5"/>
<circle class="st0" cx="263" cy="492.3" r="2.5"/>
<circle class="st0" cx="336.7" cy="513.3" r="2.5"/>
<circle class="st0" cx="394.5" cy="545" r="2.5"/>
<circle class="st0" cx="397" cy="564.7" r="2.5"/>
<circle class="st0" cx="356" cy="557.7" r="2.5"/>
<circle class="st0" cx="293" cy="547.5" r="2.5"/>
<circle class="st0" cx="221" cy="513.3" r="2.5"/>
<circle class="st0" cx="263" cy="548.7" r="2.5"/>
<circle class="st0" cx="298" cy="492.3" r="2.5"/>
<ellipse transform="matrix(0.9394 -0.3428 0.3428 0.9394 -178.7286 104.0485)" class="st0" cx="205" cy="557.7" rx="2.5" ry="2.5"/>
<circle class="st0" cx="161.2" cy="564.7" r="2.5"/>
<circle class="st0" cx="279" cy="560.2" r="2.5"/>
<circle class="st0" cx="284" cy="552.5" r="2.5"/>
<circle class="st0" cx="273.5" cy="552.5" r="2.5"/>
<circle class="st0" cx="279" cy="427" r="2.5"/>
<line class="st1" x1="279" y1="8.5" x2="269" y2="23.5"/>
<line class="st1" x1="288.3" y1="23.5" x2="279" y2="8.5"/>
<line class="st1" x1="293.3" y1="38.5" x2="288.3" y2="23.5"/>
<line class="st1" x1="264.8" y1="38.5" x2="269" y2="23.5"/>
<line class="st1" x1="279" y1="30.4" x2="293.3" y2="38.5"/>
<line class="st1" x1="264.8" y1="38.5" x2="276.5" y2="30.4"/>
<line class="st1" x1="279" y1="41" x2="258.5" y2="60.3"/>
<line class="st1" x1="299.8" y1="60.3" x2="279" y2="41"/>
<line class="st1" x1="293.3" y1="38.5" x2="299.8" y2="60.3"/>
<line class="st1" x1="264.8" y1="38.5" x2="260.3" y2="58.5"/>
<line class="st1" x1="254" y1="93.3" x2="258.5" y2="60.3"/>
<line class="st1" x1="303.3" y1="93.3" x2="299.8" y2="60.3"/>
<line class="st1" x1="258.5" y1="60.3" x2="303.3" y2="93.3"/>
<line class="st1" x1="254" y1="93.3" x2="299.8" y2="60.3"/>
<line class="st1" x1="258.5" y1="60.3" x2="297.3" y2="60.3"/>
<line class="st1" x1="254" y1="93.3" x2="303.3" y2="135.7"/>
<line class="st1" x1="253.5" y1="135.7" x2="301.8" y2="95.3"/>
<line class="st1" x1="254" y1="93.3" x2="303.3" y2="93.3"/>
<line class="st1" x1="253.5" y1="135.7" x2="303.3" y2="135.7"/>
<line class="st1" x1="303.3" y1="93.3" x2="303.3" y2="135.7"/>
<line class="st1" x1="254" y1="93.3" x2="253.5" y2="135.7"/>
<line class="st1" x1="264.8" y1="38.5" x2="279" y2="41"/>
<line class="st1" x1="279" y1="30.4" x2="279" y2="41"/>
<line class="st1" x1="280.8" y1="42.7" x2="293.3" y2="38.5"/>
<line class="st1" x1="279" y1="30.4" x2="299.8" y2="60.3"/>
<line class="st1" x1="258.5" y1="60.3" x2="277.9" y2="31"/>
<line class="st1" x1="253.5" y1="135.7" x2="253.5" y2="195.1"/>
<line class="st1" x1="303.3" y1="135.7" x2="304.3" y2="195.1"/>
<line class="st1" x1="253.5" y1="135.7" x2="304.3" y2="195.1"/>
<line class="st1" x1="253.5" y1="195.1" x2="303.3" y2="135.7"/>
<line class="st1" x1="212.5" y1="233.3" x2="253.5" y2="195.1"/>
<line class="st1" x1="199.8" y1="244.5" x2="212.5" y2="233.3"/>
<line class="st1" x1="182.3" y1="255" x2="199.8" y2="244.5"/>
<line class="st1" x1="160.5" y1="268.5" x2="182.3" y2="255"/>
<line class="st1" x1="120.5" y1="290.5" x2="160.5" y2="268.5"/>
<line class="st1" x1="80.8" y1="312.5" x2="120.5" y2="290.5"/>
<line class="st1" x1="29.5" y1="344" x2="80.8" y2="312.5"/>
<line class="st1" x1="14" y1="388.8" x2="29.5" y2="344"/>
<line class="st1" x1="29.5" y1="371.8" x2="14" y2="388.8"/>
<line class="st1" x1="85.8" y1="355" x2="29.5" y2="371.8"/>
<line class="st1" x1="123" y1="345" x2="85.8" y2="355"/>
<line class="st1" x1="165.5" y1="333.5" x2="123" y2="345"/>
<line class="st1" x1="190" y1="327.3" x2="165.5" y2="333.5"/>
<line class="st1" x1="190" y1="327.3" x2="251" y2="328.5"/>
<line class="st1" x1="253.5" y1="195.1" x2="251" y2="266"/>
<line class="st1" x1="251" y1="328.5" x2="251" y2="266"/>
<line class="st1" x1="304.3" y1="195.1" x2="305.5" y2="266"/>
<line class="st1" x1="305.5" y1="328.5" x2="305.5" y2="266"/>
<line class="st1" x1="347.3" y1="233.3" x2="304.3" y2="195.1"/>
<line class="st1" x1="211" y1="198.8" x2="212.5" y2="233.3"/>
<line class="st1" x1="178.5" y1="197.6" x2="211" y2="198.8"/>
<line class="st1" x1="176" y1="224.3" x2="178.5" y2="197.6"/>
<line class="st1" x1="182.3" y1="255" x2="176" y2="224.3"/>
<line class="st1" x1="347.3" y1="198.8" x2="347.3" y2="233.3"/>
<line class="st1" x1="379.3" y1="198.8" x2="381.8" y2="221.8"/>
<line class="st1" x1="373" y1="254.8" x2="381.8" y2="221.8"/>
<line class="st1" x1="347.3" y1="198.8" x2="379.3" y2="198.8"/>
<line class="st1" x1="347.3" y1="233.3" x2="361.8" y2="247"/>
<line class="st1" x1="373" y1="254.8" x2="361.8" y2="247"/>
<line class="st1" x1="410" y1="275.5" x2="373" y2="254.8"/>
<line class="st1" x1="444" y1="293" x2="410" y2="275.5"/>
<line class="st1" x1="475.5" y1="312.5" x2="444" y2="293"/>
<line class="st1" x1="509" y1="331" x2="475.5" y2="312.5"/>
<line class="st1" x1="530.5" y1="354" x2="509" y2="331"/>
<line class="st1" x1="543.5" y1="388.5" x2="530.5" y2="354"/>
<line class="st1" x1="528" y1="371" x2="543.5" y2="386"/>
<line class="st1" x1="509" y1="365.8" x2="528" y2="371"/>
<line class="st1" x1="475.5" y1="355.5" x2="509" y2="365.8"/>
<line class="st1" x1="441.5" y1="346.3" x2="475.5" y2="355.5"/>
<line class="st1" x1="410" y1="337" x2="441.5" y2="346.3"/>
<line class="st1" x1="373" y1="327.3" x2="407.5" y2="337"/>
<line class="st1" x1="305.5" y1="328.5" x2="373" y2="327.3"/>
<line class="st1" x1="305.5" y1="371" x2="305.5" y2="328.5"/>
<line class="st1" x1="305.5" y1="411" x2="305.5" y2="371"/>
<line class="st1" x1="300.5" y1="456" x2="305.5" y2="411"/>
<line class="st1" x1="298" y1="492.3" x2="300.5" y2="456"/>
<line class="st1" x1="336.7" y1="513.3" x2="298" y2="492.3"/>
<line class="st1" x1="394.5" y1="545" x2="336.7" y2="513.3"/>
<line class="st1" x1="397" y1="564.7" x2="394.5" y2="545"/>
<line class="st1" x1="356" y1="557.7" x2="397" y2="564.7"/>
<line class="st1" x1="290.5" y1="547.5" x2="356" y2="557.7"/>
<line class="st1" x1="279" y1="560.2" x2="284" y2="552.5"/>
<line class="st1" x1="263" y1="548.7" x2="273.5" y2="552.5"/>
<line class="st1" x1="205" y1="557.7" x2="263" y2="548.7"/>
<line class="st1" x1="279" y1="560.2" x2="273.5" y2="552.5"/>
<line class="st1" x1="293" y1="547.5" x2="284" y2="552.5"/>
<line class="st1" x1="161.2" y1="564.7" x2="205" y2="557.7"/>
<line class="st1" x1="163.7" y1="545" x2="161.2" y2="564.7"/>
<line class="st1" x1="221" y1="513.3" x2="163.7" y2="545"/>
<line class="st1" x1="263" y1="492.3" x2="221" y2="513.3"/>
<line class="st1" x1="279" y1="427" x2="273.5" y2="552.5"/>
<line class="st1" x1="284" y1="552.5" x2="279" y2="427"/>
<line class="st1" x1="256" y1="456" x2="263" y2="492.3"/>
<line class="st1" x1="253.5" y1="411" x2="256" y2="456"/>
<line class="st1" x1="253.5" y1="373.5" x2="253.5" y2="411"/>
<line class="st1" x1="251" y1="328.5" x2="253.5" y2="373.5"/>
<line class="st1" x1="347.3" y1="233.3" x2="305.5" y2="266"/>
<line class="st1" x1="253.5" y1="195.1" x2="304.3" y2="195.1"/>
<line class="st1" x1="251" y1="266" x2="305.5" y2="266"/>
<line class="st1" x1="251" y1="328.5" x2="305.5" y2="328.5"/>
<line class="st1" x1="253.5" y1="373.5" x2="305.5" y2="371"/>
<line class="st1" x1="253.5" y1="411" x2="305.5" y2="411"/>
<line class="st1" x1="279" y1="427" x2="256" y2="456"/>
<line class="st1" x1="263" y1="492.3" x2="205" y2="557.7"/>
<line class="st1" x1="221" y1="513.3" x2="263" y2="548.7"/>
<line class="st1" x1="163.7" y1="545" x2="205" y2="557.7"/>
<line class="st1" x1="161.2" y1="564.7" x2="221" y2="513.3"/>
<line class="st1" x1="336.7" y1="513.3" x2="397" y2="564.7"/>
<line class="st1" x1="394.5" y1="545" x2="356" y2="557.7"/>
<line class="st1" x1="297" y1="492.3" x2="356" y2="557.7"/>
<line class="st1" x1="293" y1="547.5" x2="336.7" y2="513.3"/>
<line class="st1" x1="264" y1="492.3" x2="273.5" y2="551.2"/>
<line class="st1" x1="263" y1="548.7" x2="263" y2="492.3"/>
<line class="st1" x1="293" y1="547.5" x2="298" y2="493.4"/>
<line class="st1" x1="284" y1="552.5" x2="298" y2="493.4"/>
<line class="st1" x1="279" y1="427" x2="263" y2="492.3"/>
<line class="st1" x1="298" y1="492.3" x2="279" y2="428"/>
<line class="st1" x1="279" y1="427" x2="300.5" y2="456"/>
<line class="st1" x1="253.5" y1="411" x2="279" y2="427"/>
<line class="st1" x1="305.5" y1="411" x2="279" y2="427"/>
<line class="st1" x1="253.5" y1="373.5" x2="305.5" y2="411"/>
<line class="st1" x1="253.5" y1="411" x2="305.5" y2="371"/>
<line class="st1" x1="251" y1="328.5" x2="305.5" y2="371"/>
<line class="st1" x1="253.5" y1="373.5" x2="305.5" y2="328.5"/>
<line class="st1" x1="251" y1="266" x2="305.5" y2="328.5"/>
<line class="st1" x1="251" y1="328.5" x2="304.9" y2="266"/>
<line class="st1" x1="347.3" y1="198.8" x2="381.8" y2="221.8"/>
<line class="st1" x1="347.3" y1="233.3" x2="379.3" y2="200.1"/>
<line class="st1" x1="361.8" y1="247" x2="379.3" y2="198.8"/>
<line class="st1" x1="347.3" y1="198.2" x2="361.8" y2="247"/>
<line class="st1" x1="347.3" y1="233.3" x2="382.8" y2="222.6"/>
<line class="st1" x1="347.3" y1="198.2" x2="373.7" y2="255.1"/>
<line class="st1" x1="178.5" y1="197.6" x2="213.5" y2="233.3"/>
<line class="st1" x1="175" y1="224.3" x2="210" y2="200.1"/>
<line class="st1" x1="199.8" y1="244.5" x2="176" y2="223.6"/>
<line class="st1" x1="182.3" y1="255" x2="211" y2="198.8"/>
<line class="st1" x1="178.5" y1="197.6" x2="199.8" y2="244.5"/>
<line class="st1" x1="213.5" y1="233.3" x2="176.8" y2="224.3"/>
<line class="st1" x1="199.8" y1="244.5" x2="211" y2="198.8"/>
<line class="st1" x1="361.8" y1="247" x2="381.8" y2="221.8"/>
<line class="st1" x1="373" y1="255.1" x2="379.3" y2="198.8"/>
<line class="st1" x1="181" y1="255.8" x2="178.5" y2="197.6"/>
<line class="st1" x1="278.8" y1="244.3" x2="347.3" y2="233.3"/>
<line class="st1" x1="211.8" y1="233.3" x2="278.8" y2="244.3"/>
<line class="st1" x1="304.3" y1="195.1" x2="250" y2="266"/>
<line class="st1" x1="253.5" y1="195.1" x2="306.8" y2="266"/>
<line class="st1" x1="278.8" y1="244.3" x2="304.3" y2="195.1"/>
<line class="st1" x1="253.5" y1="195.1" x2="278.8" y2="244.3"/>
<line class="st1" x1="305.5" y1="266" x2="373" y2="327.3"/>
<line class="st1" x1="410" y1="275.5" x2="373" y2="327.3"/>
<line class="st1" x1="410" y1="337" x2="410" y2="275.5"/>
<line class="st1" x1="444.9" y1="293.6" x2="410" y2="337"/>
<line class="st1" x1="441.5" y1="346.3" x2="444" y2="293"/>
<line class="st1" x1="475.5" y1="312.5" x2="441.5" y2="346.3"/>
<line class="st1" x1="475.5" y1="355.5" x2="475.5" y2="315"/>
<line class="st1" x1="509" y1="331" x2="474.5" y2="355.5"/>
<line class="st1" x1="509" y1="365.8" x2="509" y2="332.1"/>
<line class="st1" x1="528.5" y1="355.5" x2="511.5" y2="365.8"/>
<line class="st1" x1="528" y1="371" x2="530.5" y2="354"/>
<line class="st1" x1="509" y1="329.8" x2="528" y2="372.3"/>
<line class="st1" x1="476" y1="311.5" x2="509" y2="365.8"/>
<line class="st1" x1="444" y1="293" x2="475.3" y2="355.5"/>
<line class="st1" x1="410" y1="275.5" x2="441.5" y2="346.3"/>
<line class="st1" x1="373" y1="255.1" x2="410" y2="337"/>
<line class="st1" x1="347.3" y1="233.3" x2="373" y2="327.3"/>
<line class="st1" x1="373" y1="255.1" x2="372.7" y2="326"/>
<line class="st1" x1="305.5" y1="328.5" x2="361.8" y2="247"/>
<line class="st1" x1="304.9" y1="266.3" x2="361.8" y2="247"/>
<line class="st1" x1="305.5" y1="328.5" x2="373" y2="255.1"/>
<line class="st1" x1="304.3" y1="195.1" x2="373" y2="327.3"/>
<line class="st1" x1="410" y1="275.5" x2="304.9" y2="266.3"/>
<line class="st1" x1="305.5" y1="328.5" x2="444" y2="293"/>
<line class="st1" x1="370.5" y1="327.3" x2="475.5" y2="312.5"/>
<line class="st1" x1="475.3" y1="355.5" x2="410" y2="275.5"/>
<line class="st1" x1="509.6" y1="331" x2="410" y2="337"/>
<line class="st1" x1="475.3" y1="355.5" x2="530.5" y2="354"/>
<line class="st1" x1="182.3" y1="255" x2="190" y2="327.3"/>
<line class="st1" x1="160.5" y1="268.5" x2="190" y2="327.3"/>
<line class="st1" x1="165.5" y1="333.5" x2="160.5" y2="269.5"/>
<line class="st1" x1="120.5" y1="290.5" x2="123" y2="345"/>
<line class="st1" x1="80.8" y1="312.5" x2="85.8" y2="355"/>
<line class="st1" x1="29.5" y1="344" x2="29.5" y2="371.8"/>
<line class="st1" x1="80.8" y1="312.5" x2="29.5" y2="371.8"/>
<line class="st1" x1="29.5" y1="344" x2="85.8" y2="355"/>
<line class="st1" x1="120.5" y1="290.5" x2="85.8" y2="354"/>
<line class="st1" x1="80.8" y1="312.5" x2="121.8" y2="344"/>
<line class="st1" x1="160.5" y1="268.5" x2="123" y2="344"/>
<line class="st1" x1="120.5" y1="290.5" x2="166.4" y2="333.3"/>
<line class="st1" x1="182.3" y1="255" x2="165.5" y2="333.5"/>
<line class="st1" x1="80.8" y1="312.5" x2="166.4" y2="333.3"/>
<line class="st1" x1="160.5" y1="268.5" x2="85.8" y2="355"/>
<line class="st1" x1="29.5" y1="344" x2="123" y2="345"/>
<line class="st1" x1="29.5" y1="371.8" x2="120.5" y2="290.5"/>
<line class="st1" x1="212.5" y1="234.4" x2="250.7" y2="265.1"/>
<line class="st1" x1="182.3" y1="255" x2="251" y2="266"/>
<line class="st1" x1="199.8" y1="244.5" x2="251" y2="266"/>
<line class="st1" x1="190" y1="327.3" x2="251.3" y2="266.8"/>
<line class="st1" x1="251" y1="328.5" x2="184.8" y2="255"/>
<line class="st1" x1="199.8" y1="244.5" x2="251" y2="328.5"/>
<line class="st1" x1="190" y1="327.3" x2="212.5" y2="233.3"/>
<line class="st1" x1="182.3" y1="255" x2="123.1" y2="346"/>
</svg>
