<?xml version="1.0" encoding="iso-8859-1"?>
<!-- Generator: Adobe Illustrator 19.0.0, SVG Export Plug-In . SVG Version: 6.00 Build 0)  -->
<svg xmlns="http://www.w3.org/2000/svg" xmlns:xlink="http://www.w3.org/1999/xlink" version="1.1" id="Capa_1" x="0px" y="0px" viewBox="0 0 511.998 511.998" style="enable-background:new 0 0 511.998 511.998;" xml:space="preserve" width="512px" height="512px">
<g>
	<g>
		<path d="M428.233,276.961c-0.13-0.63-0.319-1.26-0.569-1.87c-0.25-0.6-0.561-1.18-0.92-1.72c-0.37-0.55-0.79-1.059-1.25-1.52    c-2.32-2.32-5.77-3.39-9.02-2.74c-0.64,0.13-1.269,0.32-1.87,0.57c-0.609,0.25-1.189,0.56-1.729,0.92    c-0.551,0.37-1.061,0.79-1.521,1.25c-1.86,1.86-2.93,4.44-2.93,7.07c0,0.65,0.07,1.31,0.2,1.95s0.319,1.27,0.569,1.87    c0.25,0.61,0.561,1.19,0.92,1.73c0.36,0.55,0.78,1.06,1.24,1.52c0.461,0.46,0.97,0.88,1.521,1.24c0.54,0.36,1.12,0.67,1.729,0.92    c0.6,0.25,1.23,0.44,1.87,0.57c0.639,0.13,1.3,0.2,1.95,0.2c2.639,0,5.21-1.071,7.071-2.93c0.46-0.46,0.88-0.97,1.25-1.52    c0.359-0.54,0.67-1.12,0.92-1.73c0.25-0.6,0.439-1.23,0.569-1.87c0.129-0.64,0.19-1.3,0.19-1.95    C428.423,278.271,428.363,277.611,428.233,276.961z" fill="#252226"/>
	</g>
</g>
<g>
	<g>
		<path d="M375.322,434.281c-0.436-0.167-23.042-7.119-23.042-7.119l20.296-6.165c10.272-3.121,18.716-10.057,23.775-19.532    c5.06-9.474,6.127-20.349,3.007-30.622c-3.117-10.257-10.049-18.699-19.54-23.781c-9.483-5.051-20.355-6.115-30.612-3    l-48.666,14.784c14.694-18.72,23.464-42.268,23.464-67.82c0-23.872-7.517-46.581-21.736-65.672l-0.009-0.012l-80.281-107.447    c-1.888-2.527-4.856-4.015-8.011-4.015c-3.154,0-6.123,1.488-8.011,4.015l-80.291,107.458    c-14.22,19.087-21.736,41.796-21.736,65.673c0,24.826,8.053,48.396,22.908,67.651l-48.11-14.615    c-10.257-3.115-21.129-2.05-30.633,3.011c-9.473,5.073-16.404,13.515-19.519,23.771c-3.12,10.272-2.053,21.147,3.007,30.622    c5.06,9.475,13.503,16.411,23.775,19.532l20.295,6.165c0,0-22.606,6.951-23.042,7.119c-19.578,7.51-30.137,29.122-24.037,49.2    c3.116,10.258,10.049,18.7,19.53,23.777c5.868,3.133,12.372,4.739,18.923,4.739c2.974,0,5.959-0.332,8.897-1.001    c0.454-0.104,138.044-41.817,138.044-41.817s137.59,41.713,138.043,41.817c2.938,0.67,5.921,1.001,8.896,1.001    c6.551,0,13.059-1.607,18.934-4.745c9.472-5.072,16.404-13.514,19.521-23.772C405.459,463.402,394.9,441.791,375.322,434.281z     M123.927,291.024c0.001-19.537,6.148-38.115,17.768-53.712l72.271-96.726l72.27,96.726c11.623,15.61,17.767,34.183,17.767,53.713    c0,28.185-13.043,53.391-33.432,69.961c2.557-6.723,3.968-13.964,3.968-21.469c0-13.153-4.125-25.64-11.931-36.112    c-0.002-0.003-0.005-0.007-0.007-0.01l-40.625-54.365c-1.888-2.526-4.857-4.014-8.011-4.014s-6.123,1.488-8.011,4.014    l-40.605,54.341c-7.823,10.494-11.958,22.993-11.958,36.146c0,7.655,1.36,14.987,3.838,21.758    C136.933,344.71,123.927,319.375,123.927,291.024z M254.539,339.517c0.001,22.656-18.882,41.796-41.233,41.796    c-22.009,0-39.914-18.749-39.914-41.796c0-8.813,2.764-17.178,7.986-24.183l32.588-43.612l32.608,43.637    C251.785,322.351,254.539,330.704,254.539,339.517z M61.169,401.86c-5.16-1.567-9.403-5.054-11.946-9.815    c-2.542-4.762-3.079-10.227-1.512-15.389c1.565-5.153,5.054-9.398,9.804-11.942c2.983-1.588,6.236-2.395,9.515-2.395    c1.971,0,3.949,0.291,5.885,0.879l99.655,30.273c2.084,0.839,4.191,1.619,6.326,2.327l-68.84,20.912L61.169,401.86z     M70.777,491.642c-4.503,0.86-9.18,0.149-13.243-2.022c-4.77-2.553-8.259-6.798-9.824-11.953    c-2.995-9.859,1.998-20.452,11.403-24.447c4.496-0.857,9.168-0.145,13.231,2.025c4.771,2.555,8.259,6.8,9.824,11.954    C85.163,477.057,80.174,487.648,70.777,491.642z M101.928,482.312c0.97-4.06,1.319-8.294,0.972-12.557l80.855-24.625    c5.283-1.609,8.262-7.197,6.653-12.48s-7.197-8.26-12.479-6.653l-81.333,24.77c-0.08,0.024-0.159,0.053-0.238,0.079    c-1.745-2.638-3.799-5.056-6.124-7.212c-0.002,0.001,275.406-81.464,280.162-78.931c0.998,0.534,1.936,1.146,2.816,1.821    l-75.08,22.866c-5.283,1.609-8.262,7.197-6.653,12.48c1.314,4.313,5.277,7.089,9.563,7.089c0.965,0,1.946-0.141,2.917-0.436    l76.977-23.444c-0.308,2.405-1.049,4.76-2.225,6.964c-2.543,4.762-6.786,8.249-11.946,9.816L101.928,482.312z M326.627,461.386    c-2.13,7.011-2.227,14.207-0.621,20.926l-77.635-23.584l69.506-21.115l19.822,6.022    C332.542,448.418,328.721,454.491,326.627,461.386z M380.222,477.667c-1.565,5.154-5.055,9.4-9.815,11.949    c-4.072,2.174-8.75,2.885-13.253,2.027c-9.397-3.994-14.386-14.585-11.391-24.444c1.566-5.153,5.054-9.398,9.815-11.948    c4.072-2.175,8.746-2.888,13.241-2.03C378.224,457.216,383.217,467.808,380.222,477.667z" fill="#252226"/>
	</g>
</g>
<g>
	<g>
		<path d="M410.359,243.979l-22.329-39.966c16.758-14.651,21.619-39.557,10.337-59.751c0,0-12.38-22.132-12.523-22.347    c-0.159-0.326-0.325-0.651-0.504-0.971c-0.001,0-0.001,0-0.001,0c-7.025-12.575-25.937-14.547-46.898-5.69l-4.9-8.771    c16.759-14.651,21.618-39.558,10.336-59.751c0,0-12.861-23.019-13.028-23.319c-2.531-4.53-9.197-11.982-25.434-10.996    c-6.702,0.408-14.087,2.266-21.447,5.337l-7.055-12.629c-2.694-4.823-8.788-6.546-13.607-3.853    c-4.821,2.693-6.547,8.786-3.854,13.607l7.039,12.599c-18.531,13.207-26.765,30.344-19.74,42.92    c0.169,0.302,13.028,23.318,13.028,23.318c6.275,11.232,16.549,19.348,28.928,22.853c4.355,1.233,8.787,1.843,13.193,1.843    c4.805,0,9.578-0.732,14.185-2.17l4.897,8.765c-18.531,13.207-26.766,30.345-19.74,42.922c0.179,0.32,13.028,23.318,13.028,23.318    c6.275,11.231,16.549,19.347,28.928,22.852c4.355,1.233,8.787,1.844,13.193,1.844c4.805,0,9.578-0.733,14.184-2.17l5.371,9.614    c-4.974-0.513-9.649,2.759-10.77,7.754c-1.211,5.389,2.176,10.738,7.564,11.95l13.349,3c0.738,0.166,1.476,0.245,2.201,0.245    c0.156,0,0.311-0.013,0.466-0.02l4.144,7.418c1.831,3.278,5.232,5.124,8.738,5.124c1.651,0,3.325-0.41,4.868-1.272    C411.328,254.892,413.053,248.8,410.359,243.979z M264.272,60.609c-0.076-2.841,5.635-12.746,20.442-21.018    c14.805-8.272,26.235-7.945,28.613-6.39c0.077,2.84-5.634,12.745-20.44,21.018C278.079,62.491,266.653,62.163,264.272,60.609z     M315.567,94.811c-6.571,3.671-14.175,4.563-21.413,2.514c-7.239-2.05-13.246-6.795-16.916-13.364l-1.618-2.897    c8.589-1.102,18.05-4.374,27.022-9.386c8.971-5.012,16.715-11.354,22.157-18.091l1.619,2.897    c3.669,6.568,4.561,14.172,2.512,21.411S322.135,91.142,315.567,94.811z M318.762,158.14c-0.076-2.841,5.635-12.746,20.442-21.018    c14.805-8.273,26.232-7.944,28.614-6.39c0.075,2.841-5.636,12.746-20.441,21.018C332.57,160.022,321.143,159.694,318.762,158.14z     M370.091,192.322c-0.012,0.007-0.025,0.013-0.037,0.019c-0.012,0.007-0.024,0.015-0.037,0.022    c-13.548,7.547-30.719,2.676-38.289-10.87l-1.583-2.833c8.308-1.057,17.582-4.196,26.986-9.45    c9.403-5.253,16.941-11.503,22.195-18.022l1.58,2.828C388.474,167.562,383.621,184.736,370.091,192.322z" fill="#252226"/>
	</g>
</g>
<g>
	<g>
		<path d="M483.904,375.615l-21.07-37.711c0.394-0.588,0.734-1.224,1.004-1.909l7.651-19.453c2.022-5.14-0.506-10.945-5.645-12.966    c-5.136-2.02-10.943,0.506-12.966,5.646l-2.508,6.375l-7.749-13.87c-2.694-4.822-8.787-6.545-13.606-3.853    c-4.822,2.694-6.547,8.786-3.853,13.607l41.282,73.889c1.831,3.278,5.232,5.125,8.738,5.125c1.651,0,3.325-0.41,4.868-1.272    C484.874,386.529,486.598,380.436,483.904,375.615z" fill="#252226"/>
	</g>
</g>
<g>
</g>
<g>
</g>
<g>
</g>
<g>
</g>
<g>
</g>
<g>
</g>
<g>
</g>
<g>
</g>
<g>
</g>
<g>
</g>
<g>
</g>
<g>
</g>
<g>
</g>
<g>
</g>
<g>
</g>
</svg>
