<?xml version="1.0" encoding="iso-8859-1"?>
<!-- Generator: Adobe Illustrator 19.0.0, SVG Export Plug-In . SVG Version: 6.00 Build 0)  -->
<svg xmlns="http://www.w3.org/2000/svg" xmlns:xlink="http://www.w3.org/1999/xlink" version="1.1" id="Capa_1" x="0px" y="0px" viewBox="0 0 512 512" style="enable-background:new 0 0 512 512;" xml:space="preserve" width="512px" height="512px">
<g>
	<g>
		<g>
			<rect x="271.99" y="239.64" width="70.56" height="15" fill="#252226"/>
			<rect x="377.55" y="239.64" width="15" height="15" fill="#252226"/>
			<rect x="352.55" y="239.64" width="15" height="15" fill="#252226"/>
			<rect x="387.13" y="407.3" width="15" height="15" fill="#252226"/>
			<rect x="437.13" y="407.3" width="15" height="15" fill="#252226"/>
			<rect x="412.13" y="407.3" width="15" height="15" fill="#252226"/>
			<rect x="116.6" y="340.63" width="15" height="15" fill="#252226"/>
			<rect x="91.6" y="340.63" width="15" height="15" fill="#252226"/>
			<rect x="141.6" y="340.63" width="15" height="15" fill="#252226"/>
			<rect x="152.44" y="239.64" width="15" height="15" fill="#252226"/>
			<rect x="177.44" y="239.64" width="15" height="15" fill="#252226"/>
			<rect x="202.44" y="239.64" width="15" height="15" fill="#252226"/>
			<rect x="304.91" y="359.03" width="65.02" height="15" fill="#252226"/>
			<rect x="304.91" y="316.44" width="104.67" height="15" fill="#252226"/>
			<path d="M472.05,207.06H39.95C17.922,207.06,0,224.981,0,247.01c0,18.625,12.88,34.483,30.394,38.79v173.401H479.55V286.254     c18.456-3.52,32.45-19.778,32.45-39.245C512,224.981,494.078,207.06,472.05,207.06z M212.002,272.344v116.093h-77.093v15h77.093     v40.764H45.394v-120.4h39.779v-15H45.394v-36.457l-7.031-0.44C25.262,271.083,15,260.148,15,247.01     c0-13.758,11.192-24.95,24.95-24.95h177.495c13.758,0,24.95,11.192,24.95,24.95c0,13.139-10.262,24.073-23.362,24.894     L212.002,272.344z M472.05,271.96H315.635v15H464.55v29.005h-31.712v15h31.712V444.2H227.002v-70.172h50.551v-15h-50.551V286.96     h60.193v-15h-38.583c5.5-6.861,8.783-15.552,8.783-24.951c0-9.434-3.294-18.108-8.782-24.95H472.05     c13.758,0,24.95,11.192,24.95,24.95S485.808,271.96,472.05,271.96z" fill="#252226"/>
			<path d="M200.853,90.127c2.46-2.968,5.004-6.038,7.314-9.606l-12.59-8.153c-1.832,2.829-3.989,5.432-6.273,8.188     c-0.827,0.998-1.653,1.996-2.469,3.008l11.682,9.409C199.288,92.015,200.07,91.071,200.853,90.127z" fill="#252226"/>
			<path d="M216.063,52.799h-15c0,4.604-0.612,8.619-1.873,12.273l14.181,4.89C215.183,64.708,216.063,59.095,216.063,52.799z" fill="#252226"/>
			<path d="M201.063,182.93h15c0-18.97-8.076-28.717-15.202-37.318c-6.566-7.925-11.753-14.185-11.753-27.748     c0-6.882,1.383-12.508,4.352-17.707l-13.025-7.438c-4.316,7.558-6.326,15.548-6.326,25.146c0,18.97,8.076,28.717,15.202,37.318     C195.877,163.107,201.063,169.367,201.063,182.93z" fill="#252226"/>
			<path d="M261.978,182.93h15c0-18.97-8.076-28.717-15.202-37.318c-6.566-7.925-11.753-14.185-11.753-27.748     c0-13.563,5.187-19.822,11.753-27.747c7.126-8.6,15.202-18.348,15.202-37.318h-15c0,13.563-5.187,19.823-11.753,27.748     c-7.126,8.6-15.202,18.348-15.202,37.317c0,18.97,8.076,28.717,15.202,37.318C256.791,163.107,261.978,169.367,261.978,182.93z" fill="#252226"/>
			<path d="M315.288,135.572c-2.969-5.199-4.352-10.826-4.352-17.708c0-13.563,5.187-19.822,11.753-27.747     c7.126-8.6,15.202-18.348,15.202-37.318h-15c0,13.563-5.187,19.823-11.753,27.748c-7.126,8.6-15.202,18.348-15.202,37.317     c0,9.598,2.01,17.588,6.326,25.146L315.288,135.572z" fill="#252226"/>
			<path d="M320.345,142.756l-11.682,9.409c0.815,1.012,1.642,2.01,2.469,3.008c2.284,2.756,4.441,5.359,6.273,8.188l12.59-8.153     c-2.311-3.568-4.854-6.638-7.314-9.606C321.898,144.658,321.116,143.714,320.345,142.756z" fill="#252226"/>
			<path d="M337.892,182.93c0-6.295-0.881-11.909-2.692-17.163l-14.181,4.89c1.261,3.654,1.873,7.669,1.873,12.273H337.892z" fill="#252226"/>
		</g>
	</g>
</g>
<g>
</g>
<g>
</g>
<g>
</g>
<g>
</g>
<g>
</g>
<g>
</g>
<g>
</g>
<g>
</g>
<g>
</g>
<g>
</g>
<g>
</g>
<g>
</g>
<g>
</g>
<g>
</g>
<g>
</g>
</svg>
