<?xml version="1.0" encoding="utf-8"?>
<!-- Generator: Adobe Illustrator 20.1.0, SVG Export Plug-In . SVG Version: 6.00 Build 0)  -->
<svg version="1.1" id="Шар_3" xmlns="http://www.w3.org/2000/svg" xmlns:xlink="http://www.w3.org/1999/xlink" x="0px" y="0px"
	 viewBox="0 0 533 462" style="enable-background:new 0 0 533 462;" xml:space="preserve">
<style type="text/css">
	.st0{fill:#FFFFFF;}
	.st1{fill:none;stroke:#FFFFFF;stroke-miterlimit:10;}
</style>
<circle class="st0" cx="258.3" cy="188.5" r="2.5"/>
<circle class="st0" cx="258.3" cy="277" r="2.5"/>
<circle class="st0" cx="302.8" cy="230.3" r="2.5"/>
<circle class="st0" cx="212.3" cy="230.3" r="2.5"/>
<circle class="st0" cx="289.8" cy="200" r="2.5"/>
<circle class="st0" cx="224.5" cy="262" r="2.5"/>
<circle class="st0" cx="289.8" cy="264.5" r="2.5"/>
<circle class="st0" cx="225.8" cy="201.5" r="2.5"/>
<line class="st1" x1="225.8" y1="201.5" x2="258.3" y2="188.5"/>
<line class="st1" x1="225.8" y1="201.5" x2="212.3" y2="230.3"/>
<line class="st1" x1="224.5" y1="262" x2="212.3" y2="230.5"/>
<line class="st1" x1="258.3" y1="188.5" x2="289.8" y2="200"/>
<line class="st1" x1="302.8" y1="230.3" x2="289.8" y2="200"/>
<line class="st1" x1="289.8" y1="264.5" x2="302.8" y2="230.3"/>
<line class="st1" x1="258.3" y1="277" x2="289.8" y2="264.5"/>
<line class="st1" x1="224.5" y1="262" x2="258.3" y2="277"/>
<line class="st1" x1="225.8" y1="201.5" x2="224.5" y2="262"/>
<line class="st1" x1="289.8" y1="200" x2="289.8" y2="264.5"/>
<line class="st1" x1="224.5" y1="262" x2="289.8" y2="264.5"/>
<line class="st1" x1="225.8" y1="201.5" x2="289.8" y2="200"/>
<line class="st1" x1="258.3" y1="188.5" x2="212.3" y2="230.5"/>
<line class="st1" x1="258.3" y1="277" x2="302.8" y2="230.3"/>
<line class="st1" x1="258.3" y1="188.5" x2="302.8" y2="230.3"/>
<line class="st1" x1="212.3" y1="230.3" x2="258.8" y2="278"/>
<circle class="st0" cx="210" cy="415" r="2.5"/>
<circle class="st0" cx="256.3" cy="402.8" r="2.5"/>
<circle class="st0" cx="261.3" cy="371" r="2.5"/>
<circle class="st0" cx="289" cy="338.3" r="2.5"/>
<circle class="st0" cx="291.5" cy="363" r="2.5"/>
<circle class="st0" cx="332.8" cy="306.5" r="2.5"/>
<circle class="st0" cx="330.3" cy="277" r="2.5"/>
<circle class="st0" cx="360.3" cy="260.8" r="2.5"/>
<circle class="st0" cx="352.3" cy="234.4" r="2.5"/>
<circle class="st0" cx="375" cy="228.5" r="2.5"/>
<circle class="st0" cx="371.5" cy="186" r="2.5"/>
<circle class="st0" cx="396.5" cy="170.5" r="2.5"/>
<circle class="st0" cx="385.8" cy="139.8" r="2.5"/>
<circle class="st0" cx="409.5" cy="114" r="2.5"/>
<circle class="st0" cx="391" cy="88.3" r="2.5"/>
<circle class="st0" cx="407" cy="53.5" r="2.5"/>
<circle class="st0" cx="383.3" cy="40.3" r="2.5"/>
<circle class="st0" cx="375.3" cy="12.3" r="2.5"/>
<circle class="st0" cx="349.8" cy="29.5" r="2.5"/>
<circle class="st0" cx="327" cy="17.3" r="2.5"/>
<circle class="st0" cx="321.5" cy="40.3" r="2.5"/>
<circle class="st0" cx="292" cy="36.5" r="2.5"/>
<circle class="st0" cx="292" cy="60.5" r="2.5"/>
<circle class="st0" cx="260.3" cy="63" r="2.5"/>
<circle class="st0" cx="253.3" cy="96" r="2.5"/>
<circle class="st0" cx="223.3" cy="102.5" r="2.5"/>
<circle class="st0" cx="227.3" cy="126.5" r="2.5"/>
<circle class="st0" cx="182.3" cy="158" r="2.5"/>
<circle class="st0" cx="187.3" cy="184.5" r="2.5"/>
<circle class="st0" cx="156" cy="203.1" r="2.5"/>
<circle class="st0" cx="162.8" cy="230.5" r="2.5"/>
<circle class="st0" cx="140.8" cy="235.5" r="2.5"/>
<circle class="st0" cx="143.3" cy="275.5" r="2.5"/>
<circle class="st0" cx="119" cy="293.3" r="2.5"/>
<circle class="st0" cx="129.8" cy="325" r="2.5"/>
<circle class="st0" cx="106.8" cy="354" r="2.5"/>
<circle class="st0" cx="124" cy="378" r="2.5"/>
<circle class="st0" cx="106.8" cy="405.3" r="2.5"/>
<circle class="st0" cx="132.3" cy="424" r="2.5"/>
<circle class="st0" cx="135.8" cy="451.3" r="2.5"/>
<circle class="st0" cx="168" cy="435.5" r="2.5"/>
<circle class="st0" cx="202" cy="440.5" r="2.5"/>
<line class="st1" x1="289" y1="338.3" x2="332.8" y2="306.5"/>
<line class="st1" x1="330.3" y1="277" x2="332.8" y2="306.5"/>
<line class="st1" x1="360.3" y1="260.8" x2="330.3" y2="277"/>
<line class="st1" x1="352.3" y1="234.4" x2="360.3" y2="260.8"/>
<line class="st1" x1="375" y1="228.5" x2="352.3" y2="234.4"/>
<line class="st1" x1="371.5" y1="186" x2="375" y2="228.5"/>
<line class="st1" x1="396.5" y1="170.5" x2="371.5" y2="186"/>
<line class="st1" x1="385.8" y1="139.8" x2="396.5" y2="170.5"/>
<line class="st1" x1="409.5" y1="114" x2="385.8" y2="139.8"/>
<line class="st1" x1="391" y1="88.3" x2="409.5" y2="114"/>
<line class="st1" x1="407" y1="53.5" x2="391" y2="88.3"/>
<line class="st1" x1="383.3" y1="40.3" x2="407" y2="53.5"/>
<line class="st1" x1="375.3" y1="12.3" x2="383.3" y2="40.3"/>
<line class="st1" x1="349.8" y1="29.5" x2="375.3" y2="12.3"/>
<line class="st1" x1="327" y1="17.3" x2="349.8" y2="29.5"/>
<line class="st1" x1="321.5" y1="40.3" x2="327" y2="17.3"/>
<line class="st1" x1="292" y1="36.5" x2="321.5" y2="40.3"/>
<line class="st1" x1="292" y1="60.5" x2="292" y2="36.5"/>
<line class="st1" x1="260.3" y1="63" x2="292" y2="60.5"/>
<line class="st1" x1="253.3" y1="96" x2="260.3" y2="63"/>
<line class="st1" x1="223.3" y1="102.5" x2="253.3" y2="96"/>
<line class="st1" x1="227.3" y1="126.5" x2="223.3" y2="102.5"/>
<line class="st1" x1="182.3" y1="158" x2="227.3" y2="126.5"/>
<line class="st1" x1="187.3" y1="184.5" x2="182.3" y2="158"/>
<line class="st1" x1="156" y1="203.1" x2="187.3" y2="184.5"/>
<line class="st1" x1="162.8" y1="230.5" x2="156" y2="203.1"/>
<line class="st1" x1="140.8" y1="235.5" x2="162.8" y2="230.5"/>
<line class="st1" x1="143.3" y1="275.5" x2="140.8" y2="235.5"/>
<line class="st1" x1="119" y1="293.3" x2="143.3" y2="275.5"/>
<line class="st1" x1="129.8" y1="325" x2="119" y2="293.3"/>
<line class="st1" x1="106.8" y1="354" x2="129.8" y2="325"/>
<line class="st1" x1="124" y1="378" x2="106.8" y2="354"/>
<line class="st1" x1="106.8" y1="405.3" x2="124" y2="378"/>
<line class="st1" x1="132.3" y1="424" x2="106.8" y2="405.3"/>
<line class="st1" x1="136" y1="452.3" x2="132.3" y2="424"/>
<line class="st1" x1="168" y1="435.5" x2="135.8" y2="451.3"/>
<line class="st1" x1="202" y1="440.5" x2="168" y2="435.5"/>
<line class="st1" x1="210" y1="415" x2="202" y2="440.5"/>
<line class="st1" x1="256.3" y1="402.8" x2="210" y2="415"/>
<line class="st1" x1="261.3" y1="371" x2="256.3" y2="402.8"/>
<line class="st1" x1="291.5" y1="363" x2="261.3" y2="371"/>
<line class="st1" x1="289" y1="338.3" x2="291.5" y2="363"/>
<line class="st1" x1="210" y1="415" x2="261.3" y2="371"/>
<line class="st1" x1="202" y1="440.5" x2="256.3" y2="402.8"/>
<line class="st1" x1="291.5" y1="363" x2="256.3" y2="402.8"/>
<line class="st1" x1="289" y1="338.3" x2="261.3" y2="371"/>
<line class="st1" x1="332.8" y1="306.5" x2="291.5" y2="363"/>
<line class="st1" x1="330.3" y1="277" x2="289" y2="338.3"/>
<line class="st1" x1="360.3" y1="260.8" x2="332.8" y2="306.5"/>
<line class="st1" x1="352.3" y1="234.4" x2="330.3" y2="277"/>
<line class="st1" x1="375" y1="228.5" x2="360.3" y2="260.8"/>
<line class="st1" x1="371.5" y1="186" x2="352.3" y2="234.4"/>
<line class="st1" x1="396.5" y1="170.5" x2="375" y2="228.5"/>
<line class="st1" x1="385.8" y1="139.8" x2="371.5" y2="186"/>
<line class="st1" x1="409.5" y1="114" x2="396.5" y2="170.5"/>
<line class="st1" x1="391" y1="88.3" x2="385.8" y2="138.5"/>
<line class="st1" x1="407" y1="53.5" x2="409.5" y2="114"/>
<line class="st1" x1="383.3" y1="40.3" x2="391" y2="88.3"/>
<line class="st1" x1="375.3" y1="12.3" x2="407" y2="53.5"/>
<line class="st1" x1="327" y1="17.3" x2="375.3" y2="12.3"/>
<line class="st1" x1="349.8" y1="29.5" x2="383.3" y2="40.3"/>
<line class="st1" x1="321.5" y1="40.3" x2="349.8" y2="29.5"/>
<line class="st1" x1="292" y1="36.5" x2="327" y2="17.3"/>
<line class="st1" x1="292" y1="60.5" x2="321.5" y2="40.3"/>
<line class="st1" x1="260.3" y1="63" x2="292" y2="36.5"/>
<line class="st1" x1="253.3" y1="96" x2="292" y2="60.5"/>
<line class="st1" x1="260.3" y1="63" x2="223.3" y2="102.5"/>
<line class="st1" x1="227.3" y1="126.5" x2="253.3" y2="96"/>
<line class="st1" x1="182.3" y1="158" x2="223.3" y2="102.5"/>
<line class="st1" x1="187.3" y1="184.5" x2="227.3" y2="126.5"/>
<line class="st1" x1="156" y1="203.1" x2="182.3" y2="158"/>
<line class="st1" x1="162.8" y1="230.5" x2="187.3" y2="184.5"/>
<line class="st1" x1="140.8" y1="236.5" x2="156" y2="203.1"/>
<line class="st1" x1="143.3" y1="275.5" x2="162.8" y2="230.5"/>
<line class="st1" x1="119" y1="293.3" x2="140.5" y2="235.5"/>
<line class="st1" x1="129.8" y1="325" x2="143.3" y2="275.5"/>
<line class="st1" x1="106.8" y1="354" x2="119" y2="293.3"/>
<line class="st1" x1="124" y1="378" x2="129.8" y2="325"/>
<line class="st1" x1="106.8" y1="405.3" x2="106.8" y2="354"/>
<line class="st1" x1="132.3" y1="424" x2="124" y2="378"/>
<line class="st1" x1="106.8" y1="405.3" x2="134.8" y2="451.3"/>
<line class="st1" x1="132.3" y1="424" x2="168" y2="435.5"/>
<line class="st1" x1="136" y1="452.3" x2="202" y2="440.5"/>
<line class="st1" x1="168" y1="435.5" x2="210" y2="415"/>
<ellipse transform="matrix(0.5084 -0.8611 0.8611 0.5084 -123.6597 515.8696)" class="st0" cx="390" cy="366.2" rx="2.5" ry="2.5"/>
<ellipse transform="matrix(0.5084 -0.8611 0.8611 0.5084 -77.6285 504.3969)" class="st0" cx="403" cy="320.2" rx="2.5" ry="2.5"/>
<ellipse transform="matrix(0.5084 -0.8611 0.8611 0.5084 -72.21 472.9919)" class="st0" cx="378.2" cy="299.7" rx="2.5" ry="2.5"/>
<ellipse transform="matrix(0.5084 -0.8611 0.8611 0.5084 -44.2222 440.9262)" class="st0" cx="364.1" cy="259.2" rx="2.5" ry="2.5"/>
<ellipse transform="matrix(0.5084 -0.8611 0.8611 0.5084 -42.1033 465.5002)" class="st0" cx="386.7" cy="269.6" rx="2.5" ry="2.5"/>
<ellipse transform="matrix(0.5084 -0.8611 0.8611 0.5084 -0.3862 410.0845)" class="st0" cx="359" cy="205.4" rx="2.5" ry="2.5"/>
<ellipse transform="matrix(0.5084 -0.8611 0.8611 0.5084 -2.436 380.8013)" class="st0" cx="332.3" cy="192.5" rx="2.5" ry="2.5"/>
<ellipse transform="matrix(0.5084 -0.8611 0.8611 0.5084 27.5427 365.1266)" class="st0" cx="333.6" cy="158.4" rx="2.5" ry="2.5"/>
<ellipse transform="matrix(0.5084 -0.8611 0.8611 0.5084 20.0023 338.8635)" class="st0" cx="306.8" cy="151.9" rx="2.5" ry="2.5"/>
<ellipse transform="matrix(0.5084 -0.8611 0.8611 0.5084 42.6348 333.3677)" class="st0" cx="313.3" cy="129.3" rx="2.5" ry="2.5"/>
<ellipse transform="matrix(0.5084 -0.8611 0.8611 0.5084 39.7825 291.1815)" class="st0" cx="274.9" cy="110.7" rx="2.5" ry="2.5"/>
<ellipse transform="matrix(0.5084 -0.8611 0.8611 0.5084 64.7932 276.1779)" class="st0" cx="274.3" cy="81.3" rx="2.5" ry="2.5"/>
<ellipse transform="matrix(0.5084 -0.8611 0.8611 0.5084 54.5823 245.5355)" class="st0" cx="242.4" cy="75" rx="2.5" ry="2.5"/>
<ellipse transform="matrix(0.5084 -0.8611 0.8611 0.5084 78.5027 220.3516)" class="st0" cx="232.3" cy="41.4" rx="2.5" ry="2.5"/>
<ellipse transform="matrix(0.5084 -0.8611 0.8611 0.5084 60.5357 194.5537)" class="st0" cx="200.7" cy="44.3" rx="2.5" ry="2.5"/>
<ellipse transform="matrix(0.5084 -0.8611 0.8611 0.5084 76.9034 160.3344)" class="st0" cx="178.9" cy="12.8" rx="2.5" ry="2.5"/>
<ellipse transform="matrix(0.5084 -0.8611 0.8611 0.5084 53.5497 146.8529)" class="st0" cx="155.4" cy="26.5" rx="2.5" ry="2.5"/>
<ellipse transform="matrix(0.5084 -0.8611 0.8611 0.5084 46.0253 118.9769)" class="st0" cx="127.2" cy="19.2" rx="2.5" ry="2.5"/>
<ellipse transform="matrix(0.5084 -0.8611 0.8611 0.5084 20.4934 135.7083)" class="st0" cx="129.1" cy="49.9" rx="2.5" ry="2.5"/>
<ellipse transform="matrix(0.5084 -0.8611 0.8611 0.5084 -1.8834 123.2328)" class="st0" cx="107" cy="63.3" rx="2.5" ry="2.5"/>
<ellipse transform="matrix(0.5084 -0.8611 0.8611 0.5084 -7.6704 145.9556)" class="st0" cx="124" cy="79.7" rx="2.5" ry="2.5"/>
<ellipse transform="matrix(0.5084 -0.8611 0.8611 0.5084 -36.8628 141.809)" class="st0" cx="105.8" cy="103.2" rx="2.5" ry="2.5"/>
<ellipse transform="matrix(0.5084 -0.8611 0.8611 0.5084 -37.2116 165.6031)" class="st0" cx="126.4" cy="115.4" rx="2.5" ry="2.5"/>
<ellipse transform="matrix(0.5084 -0.8611 0.8611 0.5084 -68.7255 167.6203)" class="st0" cx="112.5" cy="144" rx="2.5" ry="2.5"/>
<ellipse transform="matrix(0.5084 -0.8611 0.8611 0.5084 -76.145 200.2354)" class="st0" cx="137.3" cy="166.8" rx="2.5" ry="2.5"/>
<ellipse transform="matrix(0.5084 -0.8611 0.8611 0.5084 -105.982 206.2436)" class="st0" cx="127.7" cy="195.9" rx="2.5" ry="2.5"/>
<ellipse transform="matrix(0.5084 -0.8611 0.8611 0.5084 -102.3159 230.0965)" class="st0" cx="150.4" cy="204.7" rx="2.5" ry="2.5"/>
<ellipse transform="matrix(0.5084 -0.8611 0.8611 0.5084 -147.4368 260.6716)" class="st0" cx="154.6" cy="259.5" rx="2.5" ry="2.5"/>
<ellipse transform="matrix(0.5084 -0.8611 0.8611 0.5084 -142.8648 287.0168)" class="st0" cx="180" cy="268.6" rx="2.5" ry="2.5"/>
<ellipse transform="matrix(0.5084 -0.8611 0.8611 0.5084 -174.1201 305.0376)" class="st0" cx="180.1" cy="305" rx="2.5" ry="2.5"/>
<ellipse transform="matrix(0.5084 -0.8611 0.8611 0.5084 -167.823 332.2661)" class="st0" cx="207.1" cy="313.1" rx="2.5" ry="2.5"/>
<ellipse transform="matrix(0.5084 -0.8611 0.8611 0.5084 -189.7069 336.9035)" class="st0" cx="200.2" cy="334.6" rx="2.5" ry="2.5"/>
<ellipse transform="matrix(0.5084 -0.8611 0.8611 0.5084 -187.8091 376.5622)" class="st0" cx="235.9" cy="352.8" rx="2.5" ry="2.5"/>
<ellipse transform="matrix(0.5084 -0.8611 0.8611 0.5084 -212.1095 393.8419)" class="st0" cx="238.9" cy="382.7" rx="2.5" ry="2.5"/>
<ellipse transform="matrix(0.5084 -0.8611 0.8611 0.5084 -201.9132 425.4757)" class="st0" cx="271.7" cy="389.6" rx="2.5" ry="2.5"/>
<ellipse transform="matrix(0.5084 -0.8611 0.8611 0.5084 -225.1372 453.8926)" class="st0" cx="285" cy="424.1" rx="2.5" ry="2.5"/>
<ellipse transform="matrix(0.5084 -0.8611 0.8611 0.5084 -208.384 477.9373)" class="st0" cx="314.4" cy="421.5" rx="2.5" ry="2.5"/>
<ellipse transform="matrix(0.5084 -0.8611 0.8611 0.5084 -225.882 504.7029)" class="st0" cx="329.1" cy="450.2" rx="2.5" ry="2.5"/>
<ellipse transform="matrix(0.5084 -0.8611 0.8611 0.5084 -200.8733 523.6625)" class="st0" cx="358.2" cy="437.8" rx="2.5" ry="2.5"/>
<ellipse transform="matrix(0.5084 -0.8611 0.8611 0.5084 -197.7993 550.7296)" class="st0" cx="383.5" cy="448.6" rx="2.5" ry="2.5"/>
<ellipse transform="matrix(0.5084 -0.8611 0.8611 0.5084 -165.5972 535.5834)" class="st0" cx="386.3" cy="412.8" rx="2.5" ry="2.5"/>
<ellipse transform="matrix(0.5084 -0.8611 0.8611 0.5084 -131.9616 541.0345)" class="st0" cx="407.9" cy="386.1" rx="2.5" ry="2.5"/>
<line class="st1" x1="364.1" y1="259.2" x2="359" y2="205.4"/>
<line class="st1" x1="332.3" y1="192.5" x2="359" y2="205.4"/>
<line class="st1" x1="333.6" y1="158.4" x2="332.3" y2="192.5"/>
<line class="st1" x1="306.8" y1="151.9" x2="333.6" y2="158.4"/>
<line class="st1" x1="313.3" y1="129.3" x2="306.8" y2="151.9"/>
<line class="st1" x1="274.9" y1="110.7" x2="313.3" y2="129.3"/>
<line class="st1" x1="274.3" y1="81.3" x2="274.9" y2="110.7"/>
<line class="st1" x1="242.4" y1="75" x2="274.3" y2="81.3"/>
<line class="st1" x1="232.3" y1="41.4" x2="242.4" y2="75"/>
<line class="st1" x1="200.7" y1="44.3" x2="232.3" y2="41.4"/>
<line class="st1" x1="178.9" y1="12.8" x2="200.7" y2="44.3"/>
<line class="st1" x1="155.4" y1="26.5" x2="178.9" y2="12.8"/>
<line class="st1" x1="127.2" y1="19.2" x2="155.4" y2="26.5"/>
<line class="st1" x1="129.1" y1="49.9" x2="127.2" y2="19.2"/>
<line class="st1" x1="107" y1="63.3" x2="129.1" y2="49.9"/>
<line class="st1" x1="124" y1="79.7" x2="107" y2="63.3"/>
<line class="st1" x1="105.8" y1="103.2" x2="124" y2="79.7"/>
<line class="st1" x1="126.4" y1="115.4" x2="105.8" y2="103.2"/>
<line class="st1" x1="112.5" y1="144" x2="126.4" y2="115.4"/>
<line class="st1" x1="137.3" y1="166.8" x2="112.5" y2="144"/>
<line class="st1" x1="127.7" y1="195.9" x2="137.3" y2="166.8"/>
<line class="st1" x1="150.4" y1="204.7" x2="127.7" y2="195.9"/>
<line class="st1" x1="154.6" y1="259.5" x2="150.4" y2="204.7"/>
<line class="st1" x1="180" y1="268.6" x2="154.6" y2="259.5"/>
<line class="st1" x1="180.1" y1="305" x2="180" y2="268.6"/>
<line class="st1" x1="207.1" y1="313.1" x2="180.1" y2="305"/>
<line class="st1" x1="200.2" y1="334.6" x2="207.1" y2="313.1"/>
<line class="st1" x1="235.9" y1="352.8" x2="200.2" y2="334.6"/>
<line class="st1" x1="238.9" y1="382.7" x2="235.9" y2="352.8"/>
<line class="st1" x1="271.7" y1="389.6" x2="238.9" y2="382.7"/>
<line class="st1" x1="285" y1="424.1" x2="271.7" y2="389.6"/>
<line class="st1" x1="314.4" y1="421.5" x2="285" y2="424.1"/>
<line class="st1" x1="329.1" y1="450.2" x2="314.4" y2="421.5"/>
<line class="st1" x1="358.2" y1="437.8" x2="329.1" y2="450.2"/>
<line class="st1" x1="384.5" y1="448.9" x2="358.2" y2="437.8"/>
<line class="st1" x1="386.3" y1="412.8" x2="383.5" y2="448.6"/>
<line class="st1" x1="407.9" y1="386.1" x2="386.3" y2="412.8"/>
<line class="st1" x1="390" y1="366.2" x2="407.9" y2="386.1"/>
<line class="st1" x1="403" y1="320.2" x2="390" y2="366.2"/>
<line class="st1" x1="378.2" y1="299.7" x2="403" y2="320.2"/>
<line class="st1" x1="386.7" y1="269.6" x2="378.2" y2="299.7"/>
<line class="st1" x1="364.1" y1="259.2" x2="386.7" y2="269.6"/>
<line class="st1" x1="390" y1="366.2" x2="378.2" y2="299.7"/>
<line class="st1" x1="407.9" y1="386.1" x2="403" y2="320.2"/>
<line class="st1" x1="386.7" y1="269.6" x2="403" y2="320.2"/>
<line class="st1" x1="364.1" y1="259.2" x2="378.2" y2="299.7"/>
<line class="st1" x1="359" y1="205.4" x2="386.7" y2="269.6"/>
<line class="st1" x1="332.3" y1="192.5" x2="364.1" y2="259.2"/>
<line class="st1" x1="333.6" y1="158.4" x2="359" y2="205.4"/>
<line class="st1" x1="306.8" y1="151.9" x2="332.3" y2="192.5"/>
<line class="st1" x1="313.3" y1="129.3" x2="333.6" y2="158.4"/>
<line class="st1" x1="274.9" y1="110.7" x2="306.8" y2="151.9"/>
<line class="st1" x1="274.3" y1="81.3" x2="313.3" y2="129.3"/>
<line class="st1" x1="242.4" y1="75" x2="274.9" y2="110.7"/>
<line class="st1" x1="232.3" y1="41.4" x2="274.3" y2="81.3"/>
<line class="st1" x1="200.7" y1="44.3" x2="241.3" y2="74.3"/>
<line class="st1" x1="178.9" y1="12.8" x2="232.3" y2="41.4"/>
<line class="st1" x1="155.4" y1="26.5" x2="200.7" y2="44.3"/>
<line class="st1" x1="127.2" y1="19.2" x2="178.9" y2="12.8"/>
<line class="st1" x1="107" y1="63.3" x2="127.2" y2="19.2"/>
<line class="st1" x1="129.1" y1="49.9" x2="155.4" y2="26.5"/>
<line class="st1" x1="124" y1="79.7" x2="129.1" y2="49.9"/>
<line class="st1" x1="105.8" y1="103.2" x2="107" y2="63.3"/>
<line class="st1" x1="126.4" y1="115.4" x2="124" y2="79.7"/>
<line class="st1" x1="112.5" y1="144" x2="105.8" y2="103.2"/>
<line class="st1" x1="137.3" y1="166.8" x2="126.4" y2="115.4"/>
<line class="st1" x1="112.5" y1="144" x2="127.7" y2="195.9"/>
<line class="st1" x1="150.4" y1="204.7" x2="137.3" y2="166.8"/>
<line class="st1" x1="154.6" y1="259.5" x2="127.7" y2="195.9"/>
<line class="st1" x1="180" y1="268.6" x2="150.4" y2="204.7"/>
<line class="st1" x1="180.1" y1="305" x2="154.6" y2="259.5"/>
<line class="st1" x1="207.1" y1="313.1" x2="180" y2="268.6"/>
<line class="st1" x1="201.1" y1="335.1" x2="180.1" y2="305"/>
<line class="st1" x1="235.9" y1="352.8" x2="207.1" y2="313.1"/>
<line class="st1" x1="238.9" y1="382.7" x2="200.1" y2="334.8"/>
<line class="st1" x1="271.7" y1="389.6" x2="235.9" y2="352.8"/>
<line class="st1" x1="285" y1="424.1" x2="238.9" y2="382.7"/>
<line class="st1" x1="314.4" y1="421.5" x2="271.7" y2="389.6"/>
<line class="st1" x1="329.1" y1="450.2" x2="285" y2="424.1"/>
<line class="st1" x1="358.2" y1="437.8" x2="314.4" y2="421.5"/>
<line class="st1" x1="329.1" y1="450.2" x2="383" y2="449.5"/>
<line class="st1" x1="358.2" y1="437.8" x2="386.3" y2="412.8"/>
<line class="st1" x1="384.5" y1="448.9" x2="407.9" y2="386.1"/>
<line class="st1" x1="386.3" y1="412.8" x2="390" y2="366.2"/>
<ellipse transform="matrix(0.8678 -0.4969 0.4969 0.8678 -131.5517 75.5381)" class="st0" cx="76.2" cy="285" rx="2.5" ry="2.5"/>
<ellipse transform="matrix(0.8678 -0.4969 0.4969 0.8678 -144.027 96.7436)" class="st0" cx="109.8" cy="319" rx="2.5" ry="2.5"/>
<ellipse transform="matrix(0.8678 -0.4969 0.4969 0.8678 -134.3713 110.1577)" class="st0" cx="139.8" cy="307.6" rx="2.5" ry="2.5"/>
<ellipse transform="matrix(0.8678 -0.4969 0.4969 0.8678 -132.6698 132.1656)" class="st0" cx="182" cy="315.4" rx="2.5" ry="2.5"/>
<ellipse transform="matrix(0.8678 -0.4969 0.4969 0.8678 -142.5353 124.0229)" class="st0" cx="161.8" cy="329.9" rx="2.5" ry="2.5"/>
<ellipse transform="matrix(0.8678 -0.4969 0.4969 0.8678 -137.1785 159.5949)" class="st0" cx="231.3" cy="337.6" rx="2.5" ry="2.5"/>
<ellipse transform="matrix(0.8678 -0.4969 0.4969 0.8678 -125.5951 169.4739)" class="st0" cx="255.7" cy="320.8" rx="2.5" ry="2.5"/>
<ellipse transform="matrix(0.8678 -0.4969 0.4969 0.8678 -130.6838 186.2643)" class="st0" cx="284.7" cy="338.7" rx="2.5" ry="2.5"/>
<ellipse transform="matrix(0.8678 -0.4969 0.4969 0.8678 -118.2236 193.0139)" class="st0" cx="303.6" cy="318.7" rx="2.5" ry="2.5"/>
<ellipse transform="matrix(0.8678 -0.4969 0.4969 0.8678 -124.4112 203.3875)" class="st0" cx="320" cy="335.5" rx="2.5" ry="2.5"/>
<ellipse transform="matrix(0.8678 -0.4969 0.4969 0.8678 -107.7604 217.6568)" class="st0" cx="355.2" cy="311.3" rx="2.5" ry="2.5"/>
<ellipse transform="matrix(0.8678 -0.4969 0.4969 0.8678 -111.2927 232.3646)" class="st0" cx="381" cy="325.3" rx="2.5" ry="2.5"/>
<ellipse transform="matrix(0.8678 -0.4969 0.4969 0.8678 -96.2415 239.7167)" class="st0" cx="402.4" cy="300.7" rx="2.5" ry="2.5"/>
<ellipse transform="matrix(0.8678 -0.4969 0.4969 0.8678 -95.6096 257.7191)" class="st0" cx="436.5" cy="308.5" rx="2.5" ry="2.5"/>
<ellipse transform="matrix(0.8678 -0.4969 0.4969 0.8678 -79.534 260.4405)" class="st0" cx="449.7" cy="279.7" rx="2.5" ry="2.5"/>
<ellipse transform="matrix(0.8678 -0.4969 0.4969 0.8678 -72.8141 278.9297)" class="st0" cx="487.8" cy="276.3" rx="2.5" ry="2.5"/>
<ellipse transform="matrix(0.8678 -0.4969 0.4969 0.8678 -59.3404 275.1831)" class="st0" cx="487.5" cy="249.1" rx="2.5" ry="2.5"/>
<ellipse transform="matrix(0.8678 -0.4969 0.4969 0.8678 -46.289 282.5246)" class="st0" cx="507.8" cy="228.3" rx="2.5" ry="2.5"/>
<ellipse transform="matrix(0.8678 -0.4969 0.4969 0.8678 -43.2069 266.9963)" class="st0" cx="480.2" cy="214.7" rx="2.5" ry="2.5"/>
<ellipse transform="matrix(0.8678 -0.4969 0.4969 0.8678 -30.4604 263.2458)" class="st0" cx="479.5" cy="188.9" rx="2.5" ry="2.5"/>
<ellipse transform="matrix(0.8678 -0.4969 0.4969 0.8678 -36.7687 252.8493)" class="st0" cx="456.8" cy="195.5" rx="2.5" ry="2.5"/>
<ellipse transform="matrix(0.8678 -0.4969 0.4969 0.8678 -24.6291 243.5505)" class="st0" cx="445.4" cy="168.1" rx="2.5" ry="2.5"/>
<ellipse transform="matrix(0.8678 -0.4969 0.4969 0.8678 -33.3095 234.7777)" class="st0" cx="424.6" cy="180" rx="2.5" ry="2.5"/>
<ellipse transform="matrix(0.8678 -0.4969 0.4969 0.8678 -22.608 222.3804)" class="st0" cx="406.6" cy="153.7" rx="2.5" ry="2.5"/>
<ellipse transform="matrix(0.8678 -0.4969 0.4969 0.8678 -31.9847 207.7861)" class="st0" cx="374.5" cy="164" rx="2.5" ry="2.5"/>
<ellipse transform="matrix(0.8678 -0.4969 0.4969 0.8678 -23.3696 194.5597)" class="st0" cx="353.9" cy="141.2" rx="2.5" ry="2.5"/>
<ellipse transform="matrix(0.8678 -0.4969 0.4969 0.8678 -33.5302 187.2515)" class="st0" cx="335.1" cy="156.6" rx="2.5" ry="2.5"/>
<ellipse transform="matrix(0.8678 -0.4969 0.4969 0.8678 -28.4561 159.4436)" class="st0" cx="285.4" cy="133.2" rx="2.5" ry="2.5"/>
<ellipse transform="matrix(0.8678 -0.4969 0.4969 0.8678 -39.8683 151.5654)" class="st0" cx="264.9" cy="150.7" rx="2.5" ry="2.5"/>
<ellipse transform="matrix(0.8678 -0.4969 0.4969 0.8678 -35.1842 133.4502)" class="st0" cx="233.2" cy="132.8" rx="2.5" ry="2.5"/>
<ellipse transform="matrix(0.8678 -0.4969 0.4969 0.8678 -47.55 125.8896)" class="st0" cx="212.8" cy="152.3" rx="2.5" ry="2.5"/>
<ellipse transform="matrix(0.8678 -0.4969 0.4969 0.8678 -41.3167 116.105)" class="st0" cx="197.5" cy="135.7" rx="2.5" ry="2.5"/>
<ellipse transform="matrix(0.8678 -0.4969 0.4969 0.8678 -56.6852 102.4005)" class="st0" cx="164.1" cy="157.7" rx="2.5" ry="2.5"/>
<ellipse transform="matrix(0.8678 -0.4969 0.4969 0.8678 -54.2534 87.1288)" class="st0" cx="136.6" cy="145.5" rx="2.5" ry="2.5"/>
<ellipse transform="matrix(0.8678 -0.4969 0.4969 0.8678 -69.6663 79.4112)" class="st0" cx="114.4" cy="170.6" rx="2.5" ry="2.5"/>
<ellipse transform="matrix(0.8678 -0.4969 0.4969 0.8678 -71.7478 60.4921)" class="st0" cx="77.8" cy="165.1" rx="2.5" ry="2.5"/>
<ellipse transform="matrix(0.8678 -0.4969 0.4969 0.8678 -86.7336 57.9583)" class="st0" cx="65.6" cy="192" rx="2.5" ry="2.5"/>
<ellipse transform="matrix(0.8678 -0.4969 0.4969 0.8678 -90.2839 41.7585)" class="st0" cx="33.3" cy="190.5" rx="2.5" ry="2.5"/>
<ellipse transform="matrix(0.8678 -0.4969 0.4969 0.8678 -106.3866 44.1276)" class="st0" cx="29.7" cy="222" rx="2.5" ry="2.5"/>
<ellipse transform="matrix(0.8678 -0.4969 0.4969 0.8678 -117.5217 35.4327)" class="st0" cx="7.8" cy="238.6" rx="2.5" ry="2.5"/>
<ellipse transform="matrix(0.8678 -0.4969 0.4969 0.8678 -123.6137 52.854)" class="st0" cx="37.5" cy="258.7" rx="2.5" ry="2.5"/>
<ellipse transform="matrix(0.8678 -0.4969 0.4969 0.8678 -137.8503 63.3235)" class="st0" cx="50.1" cy="290.7" rx="2.5" ry="2.5"/>
<line class="st1" x1="182" y1="315.4" x2="231.3" y2="337.6"/>
<line class="st1" x1="255.7" y1="320.8" x2="231.3" y2="337.6"/>
<line class="st1" x1="284.7" y1="338.7" x2="255.7" y2="320.8"/>
<line class="st1" x1="303.6" y1="318.7" x2="284.7" y2="338.7"/>
<line class="st1" x1="320" y1="335.5" x2="303.6" y2="318.7"/>
<line class="st1" x1="355.2" y1="311.3" x2="320" y2="335.5"/>
<line class="st1" x1="381" y1="325.3" x2="355.2" y2="311.3"/>
<line class="st1" x1="402.4" y1="300.7" x2="381" y2="325.3"/>
<line class="st1" x1="436.5" y1="308.5" x2="402.4" y2="300.7"/>
<line class="st1" x1="449.7" y1="279.7" x2="436.5" y2="308.5"/>
<line class="st1" x1="487.8" y1="276.3" x2="449.7" y2="279.7"/>
<line class="st1" x1="487.5" y1="249.1" x2="487.8" y2="276.3"/>
<line class="st1" x1="507.8" y1="228.3" x2="487.5" y2="249.1"/>
<line class="st1" x1="480.2" y1="214.7" x2="507.8" y2="228.3"/>
<line class="st1" x1="479.5" y1="188.9" x2="480.2" y2="214.7"/>
<line class="st1" x1="456.8" y1="195.5" x2="479.5" y2="188.9"/>
<line class="st1" x1="445.4" y1="168.1" x2="456.8" y2="195.5"/>
<line class="st1" x1="424.6" y1="180" x2="445.4" y2="168.1"/>
<line class="st1" x1="406.6" y1="153.7" x2="424.6" y2="180"/>
<line class="st1" x1="374.5" y1="164" x2="406.6" y2="153.7"/>
<line class="st1" x1="353.9" y1="141.2" x2="374.5" y2="164"/>
<line class="st1" x1="335.1" y1="156.6" x2="353.9" y2="141.2"/>
<line class="st1" x1="285.4" y1="133.2" x2="335.1" y2="156.6"/>
<line class="st1" x1="264.9" y1="150.7" x2="285.4" y2="133.2"/>
<line class="st1" x1="233.2" y1="132.8" x2="264.9" y2="150.7"/>
<line class="st1" x1="212.8" y1="152.3" x2="233.2" y2="132.8"/>
<line class="st1" x1="197.5" y1="135.7" x2="212.8" y2="152.3"/>
<line class="st1" x1="164.1" y1="157.7" x2="197.5" y2="135.7"/>
<line class="st1" x1="136.6" y1="145.5" x2="164.1" y2="157.7"/>
<line class="st1" x1="114.4" y1="170.6" x2="136.6" y2="145.5"/>
<line class="st1" x1="77.8" y1="165.1" x2="114.4" y2="170.6"/>
<line class="st1" x1="65.6" y1="192" x2="77.8" y2="165.1"/>
<line class="st1" x1="33.3" y1="190.5" x2="65.6" y2="192"/>
<line class="st1" x1="29.7" y1="222" x2="33.3" y2="190.5"/>
<line class="st1" x1="7.1" y1="239.3" x2="29.7" y2="222"/>
<line class="st1" x1="37.5" y1="258.7" x2="7.8" y2="238.6"/>
<line class="st1" x1="50.1" y1="290.7" x2="37.5" y2="258.7"/>
<line class="st1" x1="76.2" y1="285" x2="50.1" y2="290.7"/>
<line class="st1" x1="109.8" y1="319" x2="76.2" y2="285"/>
<line class="st1" x1="139.8" y1="307.6" x2="109.8" y2="319"/>
<line class="st1" x1="161.8" y1="329.9" x2="139.8" y2="307.6"/>
<line class="st1" x1="182" y1="315.4" x2="161.8" y2="329.9"/>
<line class="st1" x1="76.2" y1="285" x2="139.8" y2="307.6"/>
<line class="st1" x1="50.1" y1="290.7" x2="109.8" y2="319"/>
<line class="st1" x1="161.8" y1="329.9" x2="109.8" y2="319"/>
<line class="st1" x1="182" y1="315.4" x2="139.8" y2="307.6"/>
<line class="st1" x1="231.3" y1="337.6" x2="161.8" y2="329.9"/>
<line class="st1" x1="255.7" y1="320.8" x2="182" y2="315.4"/>
<line class="st1" x1="284.7" y1="338.7" x2="231.3" y2="337.6"/>
<line class="st1" x1="303.6" y1="318.7" x2="255.7" y2="320.8"/>
<line class="st1" x1="320" y1="335.5" x2="284.7" y2="338.7"/>
<line class="st1" x1="355.2" y1="311.3" x2="303.6" y2="318.7"/>
<line class="st1" x1="381" y1="325.3" x2="320" y2="335.5"/>
<line class="st1" x1="402.4" y1="300.7" x2="355.2" y2="311.3"/>
<line class="st1" x1="436.5" y1="308.5" x2="381" y2="325.3"/>
<line class="st1" x1="449.7" y1="279.7" x2="403.5" y2="300.1"/>
<line class="st1" x1="487.8" y1="276.3" x2="436.5" y2="308.5"/>
<line class="st1" x1="487.5" y1="249.1" x2="449.7" y2="279.7"/>
<line class="st1" x1="507.8" y1="228.3" x2="487.8" y2="276.3"/>
<line class="st1" x1="479.5" y1="188.9" x2="507.8" y2="228.3"/>
<line class="st1" x1="480.2" y1="214.7" x2="487.5" y2="249.1"/>
<line class="st1" x1="456.8" y1="195.5" x2="480.2" y2="214.7"/>
<line class="st1" x1="445.4" y1="168.1" x2="479.5" y2="188.9"/>
<line class="st1" x1="424.6" y1="180" x2="456.8" y2="195.5"/>
<line class="st1" x1="406.6" y1="153.7" x2="445.4" y2="168.1"/>
<line class="st1" x1="374.5" y1="164" x2="424.6" y2="180"/>
<line class="st1" x1="406.6" y1="153.7" x2="353.9" y2="141.2"/>
<line class="st1" x1="335.1" y1="156.6" x2="374.5" y2="164"/>
<line class="st1" x1="285.4" y1="133.2" x2="353.9" y2="141.2"/>
<line class="st1" x1="264.9" y1="150.7" x2="335.1" y2="156.6"/>
<line class="st1" x1="233.2" y1="132.8" x2="285.4" y2="133.2"/>
<line class="st1" x1="212.8" y1="152.3" x2="264.9" y2="150.7"/>
<line class="st1" x1="196.7" y1="136.2" x2="233.2" y2="132.8"/>
<line class="st1" x1="164.1" y1="157.7" x2="212.8" y2="152.3"/>
<line class="st1" x1="136.6" y1="145.5" x2="197.4" y2="135.5"/>
<line class="st1" x1="114.4" y1="170.6" x2="164.1" y2="157.7"/>
<line class="st1" x1="77.8" y1="165.1" x2="136.6" y2="145.5"/>
<line class="st1" x1="65.6" y1="192" x2="114.4" y2="170.6"/>
<line class="st1" x1="33.3" y1="190.5" x2="77.8" y2="165.1"/>
<line class="st1" x1="29.7" y1="222" x2="65.6" y2="192"/>
<line class="st1" x1="33.3" y1="190.5" x2="7.3" y2="237.7"/>
<line class="st1" x1="29.7" y1="222" x2="37.5" y2="258.7"/>
<line class="st1" x1="7.1" y1="239.3" x2="50.1" y2="290.7"/>
<line class="st1" x1="37.5" y1="258.7" x2="76.2" y2="285"/>
<line class="st1" x1="258.3" y1="191" x2="258.8" y2="278"/>
<line class="st1" x1="212.3" y1="230.5" x2="300.3" y2="230.3"/>
<line class="st1" x1="224.5" y1="262" x2="289.8" y2="200"/>
<line class="st1" x1="228.3" y1="201.5" x2="287.3" y2="264.5"/>
</svg>
